<svg width="101" height="39" viewBox="0 0 101 39" fill="none" xmlns="http://www.w3.org/2000/svg">
<g clip-path="url(#clip0_2626_21512)">
<path d="M0.501953 0.113037H15.8238C20.4836 0.113037 23.7658 1.29433 25.9371 3.49291C27.4175 4.99557 28.3184 6.98139 28.3184 9.55674V9.66313C28.3184 14.0093 25.8824 16.5847 22.6003 18.0341C27.1004 19.5368 29.9584 22.1122 29.9584 27.2097V27.316C29.9562 33.7544 24.7738 37.664 15.9288 37.664H0.501953V0.113037ZM13.2829 15.082C16.4077 15.082 18.1548 14.0093 18.1548 11.8107V11.7043C18.1548 9.66313 16.5651 8.48405 13.495 8.48405H10.5059V15.082H13.2829ZM14.7655 29.3019C17.8902 29.3019 19.6898 28.0674 19.6898 25.8666V25.7602C19.6898 23.7212 18.1001 22.3803 14.6605 22.3803H10.5059V29.3019H14.7655Z" fill="#FF1932"/>
<path d="M34.0078 0.113037H43.8477V37.664H39.5816C38.8496 37.664 38.1248 37.5179 37.4486 37.234C36.7724 36.9501 36.1579 36.5339 35.6403 36.0093C35.1228 35.4847 34.7122 34.862 34.4321 34.1766C34.152 33.4911 34.0078 32.7565 34.0078 32.0146V0.113037Z" fill="#FF1932"/>
<path d="M99.7081 30.1108C98.8657 30.1202 98.0298 29.96 97.2489 29.6396C96.4679 29.3192 95.7575 28.8449 95.1587 28.2442C94.56 27.6435 94.0848 26.9283 93.7607 26.1401C93.4366 25.3519 93.27 24.5064 93.2706 23.6525V16.9393H100.5V8.49069H93.2706V0H83.1945V8.49069H80.166V16.9393H83.1945V23.566C83.1945 31.445 90.4498 37.8967 98.1775 38.6658H98.2387H98.1928C98.6957 38.7145 99.2008 38.7411 99.7081 38.7411H100.5V30.0975L99.7081 30.1108Z" fill="#FF1932"/>
<path d="M63.4402 7.30054H63.121C59.2111 7.39631 55.4931 9.03785 52.7612 11.8745C50.0293 14.7112 48.5 18.5182 48.5 22.4823C48.5 26.4464 50.0293 30.2533 52.7612 33.09C55.4931 35.9267 59.2111 37.5682 63.121 37.664H63.4402C67.3501 37.5682 71.0681 35.9267 73.8 33.09C76.5319 30.2533 78.0612 26.4464 78.0612 22.4823C78.0612 18.5182 76.5319 14.7112 73.8 11.8745C71.0681 9.03785 67.3501 7.39631 63.4402 7.30054ZM63.4402 29.0315H63.121C61.4287 28.9999 59.8163 28.2964 58.6305 27.0722C57.4448 25.8481 56.7804 24.2011 56.7804 22.4856C56.7804 20.7701 57.4448 19.1231 58.6305 17.899C59.8163 16.6748 61.4287 15.9713 63.121 15.9397H63.4402C64.2983 15.9237 65.151 16.0812 65.9484 16.403C66.7458 16.7248 67.4719 17.2044 68.0843 17.8138C68.6967 18.4232 69.1832 19.1502 69.5153 19.9524C69.8474 20.7545 70.0184 21.6157 70.0184 22.4856C70.0184 23.3555 69.8474 24.2167 69.5153 25.0188C69.1832 25.821 68.6967 26.548 68.0843 27.1574C67.4719 27.7668 66.7458 28.2465 65.9484 28.5682C65.151 28.89 64.2983 29.0475 63.4402 29.0315Z" fill="#FF1932"/>
</g>
<defs>
<clipPath id="clip0_2626_21512">
<rect width="100" height="38.75" fill="white" transform="translate(0.5)"/>
</clipPath>
</defs>
</svg>
