<?xml version="1.0" encoding="utf-8"?>
<!-- Generator: Adobe Illustrator 23.0.3, SVG Export Plug-In . SVG Version: 6.00 Build 0)  -->
<svg version="1.1" id="Calque_1" xmlns="http://www.w3.org/2000/svg" xmlns:xlink="http://www.w3.org/1999/xlink" x="0px" y="0px"
	 viewBox="0 0 166 167" style="enable-background:new 0 0 166 167;" xml:space="preserve">
<style type="text/css">
	.st0{fill-rule:evenodd;clip-rule:evenodd;fill:#002D5D;}
	.st1{fill-rule:evenodd;clip-rule:evenodd;fill:#FEFEFE;}
	.st2{filter:url(#Adobe_OpacityMaskFilter);}
	.st3{fill-rule:evenodd;clip-rule:evenodd;fill:#FFFFFF;}
	.st4{mask:url(#mask-3_35_);fill-rule:evenodd;clip-rule:evenodd;fill:#FEFEFE;}
	.st5{filter:url(#Adobe_OpacityMaskFilter_1_);}
	.st6{mask:url(#mask-3_34_);fill-rule:evenodd;clip-rule:evenodd;fill:#FEFEFE;}
	.st7{filter:url(#Adobe_OpacityMaskFilter_2_);}
	.st8{mask:url(#mask-3_33_);fill-rule:evenodd;clip-rule:evenodd;fill:#FEFEFE;}
	.st9{filter:url(#Adobe_OpacityMaskFilter_3_);}
	.st10{mask:url(#mask-3_32_);fill-rule:evenodd;clip-rule:evenodd;fill:#FEFEFE;}
	.st11{filter:url(#Adobe_OpacityMaskFilter_4_);}
	.st12{mask:url(#mask-3_31_);fill-rule:evenodd;clip-rule:evenodd;fill:#FEFEFE;}
	.st13{filter:url(#Adobe_OpacityMaskFilter_5_);}
	.st14{mask:url(#mask-3_30_);fill-rule:evenodd;clip-rule:evenodd;fill:#FEFEFE;}
	.st15{filter:url(#Adobe_OpacityMaskFilter_6_);}
	.st16{mask:url(#mask-3_29_);fill-rule:evenodd;clip-rule:evenodd;fill:#FEFEFE;}
</style>
<title>7E86576C-8D46-4104-B60D-649C7D5B6152</title>
<desc>Created with sketchtool.</desc>
<g>
	<polygon id="Fill-1_4_" class="st0" points="7.4,158.3 157.7,158.3 157.7,7.8 7.4,7.8 	"/>
	<path id="Fill-2_4_" class="st1" d="M0,166.6h166V0.4H0V166.6z M8,158.6H158V8.4H8V158.6z"/>
	<path id="Fill-3_4_" class="st1" d="M27.6,112.5v3.8h-0.8v-1.1c-0.5,0.6-1.4,1.3-3.1,1.3c-3,0-4.4-1.8-4.4-4c0-2.7,1.8-4.1,4.4-4.1
		c1.8,0,3.2,0.8,3.8,2.1l-0.8,0.4c-0.6-1.4-2-1.8-3.1-1.8c-2.2,0-3.4,1.2-3.4,3.4c0,1.8,1.2,3.1,3.5,3.1c1.4,0,2.9-0.7,3-2.3h-3.1
		v-0.8H27.6z"/>
	<path id="Fill-5_4_" class="st1" d="M31.2,112h3.3c1.3,0,2.4-0.2,2.4-1.3c0-1.1-1-1.3-2.4-1.3h-3.3V112z M30.2,108.6h4.5
		c1.2,0,3,0.3,3,2.2c0,1.6-1.5,2.1-2.4,2.1l2.5,3.4h-1.2l-2.5-3.4h-3v3.4h-0.9V108.6z"/>
	<path id="Fill-7_4_" class="st1" d="M44.7,115.7c1.9,0,3.6-1,3.6-3.3c0-1.7-1.3-3.1-3.6-3.1c-2.2,0-3.6,1.4-3.6,3.1
		C41.2,114.7,42.8,115.7,44.7,115.7 M44.7,108.4c2.6,0,4.5,1.5,4.5,4.1c0,2.7-2.3,4-4.5,4c-2.2,0-4.5-1.3-4.5-4
		C40.2,109.9,42.1,108.4,44.7,108.4"/>
	<path id="Fill-9_4_" class="st1" d="M59.8,113.1c0,2.8-2.2,3.4-4,3.4c-1.8,0-4-0.6-4-3.4v-4.5h0.9v4.5c0,1.8,1.1,2.6,3,2.6
		c1.9,0,3-0.8,3-2.6v-4.5h0.9V113.1z"/>
	<path id="Fill-11_4_" class="st1" d="M63.8,112.2h3.3c1.5,0,2.3-0.3,2.3-1.4c0-1.1-0.8-1.4-2.3-1.4h-3.3V112.2z M62.9,108.6h4.5
		c1.6,0,3,0.4,3,2.2c0,1.8-1.4,2.2-3,2.2h-3.6v3.3h-0.9V108.6z"/>
	<polygon id="Fill-13_4_" class="st1" points="72.7,108.6 79.6,108.6 79.6,109.4 73.7,109.4 73.7,111.9 78.6,111.9 78.6,112.7 
		73.7,112.7 73.7,115.5 79.7,115.5 79.7,116.3 72.7,116.3 	"/>
	<defs>
		<filter id="Adobe_OpacityMaskFilter" filterUnits="userSpaceOnUse" x="44.1" y="124.8" width="4.2" height="22.6">
			<feColorMatrix  type="matrix" values="1 0 0 0 0  0 1 0 0 0  0 0 1 0 0  0 0 0 1 0"/>
		</filter>
	</defs>
	<mask maskUnits="userSpaceOnUse" x="44.1" y="124.8" width="4.2" height="22.6" id="mask-3_35_">
		<g class="st2">
			<polygon id="path-2_35_" class="st3" points="0,166.6 166,166.6 166,0.4 0,0.4 			"/>
		</g>
	</mask>
	<polygon id="Fill-15_4_" class="st4" points="44.1,147.3 48.4,147.3 48.4,124.8 44.1,124.8 	"/>
	<defs>
		<filter id="Adobe_OpacityMaskFilter_1_" filterUnits="userSpaceOnUse" x="52.5" y="124.8" width="19.1" height="22.6">
			<feColorMatrix  type="matrix" values="1 0 0 0 0  0 1 0 0 0  0 0 1 0 0  0 0 0 1 0"/>
		</filter>
	</defs>
	<mask maskUnits="userSpaceOnUse" x="52.5" y="124.8" width="19.1" height="22.6" id="mask-3_34_">
		<g class="st5">
			<polygon id="path-2_34_" class="st3" points="0,166.6 166,166.6 166,0.4 0,0.4 			"/>
		</g>
	</mask>
	<path id="Fill-17_4_" class="st6" d="M56.7,143.4h6.5c1.7,0,4.2-0.6,4.2-2.7c0-2-2.5-3.1-4.2-3.1h-6.5V143.4z M56.7,133.8h6.5
		c2.7,0,3.5-1.1,3.5-2.4c0-1-0.8-2.8-3.5-2.8h-6.5V133.8z M70.9,131.3c0,1.7-0.8,3.4-2.9,4.4c2.6,0.8,3.6,3.6,3.6,5
		c0,5-3.8,6.6-8.4,6.6H52.5v-22.6h10.7C67.6,124.8,70.9,126.8,70.9,131.3L70.9,131.3z"/>
	<defs>
		<filter id="Adobe_OpacityMaskFilter_2_" filterUnits="userSpaceOnUse" x="101" y="124.8" width="4.2" height="22.6">
			<feColorMatrix  type="matrix" values="1 0 0 0 0  0 1 0 0 0  0 0 1 0 0  0 0 0 1 0"/>
		</filter>
	</defs>
	<mask maskUnits="userSpaceOnUse" x="101" y="124.8" width="4.2" height="22.6" id="mask-3_33_">
		<g class="st7">
			<polygon id="path-2_33_" class="st3" points="0,166.6 166,166.6 166,0.4 0,0.4 			"/>
		</g>
	</mask>
	<polygon id="Fill-18_4_" class="st8" points="101,147.3 105.3,147.3 105.3,124.8 101,124.8 	"/>
	<defs>
		<filter id="Adobe_OpacityMaskFilter_3_" filterUnits="userSpaceOnUse" x="109.3" y="124.7" width="20" height="22.6">
			<feColorMatrix  type="matrix" values="1 0 0 0 0  0 1 0 0 0  0 0 1 0 0  0 0 0 1 0"/>
		</filter>
	</defs>
	<mask maskUnits="userSpaceOnUse" x="109.3" y="124.7" width="20" height="22.6" id="mask-3_32_">
		<g class="st9">
			<polygon id="path-2_32_" class="st3" points="0,166.6 166,166.6 166,0.4 0,0.4 			"/>
		</g>
	</mask>
	<path id="Fill-19_4_" class="st10" d="M113.5,128.7v7.2h6.5c2.7,0,3.9-1.8,3.9-3.6c0-1.8-1.2-3.6-3.9-3.6H113.5z M129.3,147.3h-5.1
		l-6.6-7.5h-4.1v7.5h-4.3v-22.6c3.6,0,7.2,0,10.7,0c5.3,0,8.1,3.6,8.1,7.5c0,3.1-1.4,6.2-5.7,7.1l6.8,7.7V147.3z"/>
	<defs>
		<filter id="Adobe_OpacityMaskFilter_4_" filterUnits="userSpaceOnUse" x="130.9" y="124.8" width="16.9" height="22.6">
			<feColorMatrix  type="matrix" values="1 0 0 0 0  0 1 0 0 0  0 0 1 0 0  0 0 0 1 0"/>
		</filter>
	</defs>
	<mask maskUnits="userSpaceOnUse" x="130.9" y="124.8" width="16.9" height="22.6" id="mask-3_31_">
		<g class="st11">
			<polygon id="path-2_31_" class="st3" points="0,166.6 166,166.6 166,0.4 0,0.4 			"/>
		</g>
	</mask>
	<polygon id="Fill-20_4_" class="st12" points="147.8,147.3 130.9,147.3 130.9,124.8 147.8,124.8 147.8,128.9 135.2,128.9 
		135.2,134.1 147.4,134.1 147.4,138.1 135.2,138.1 135.2,143.2 147.8,143.2 	"/>
	<defs>
		<filter id="Adobe_OpacityMaskFilter_5_" filterUnits="userSpaceOnUse" x="73.9" y="124.2" width="24" height="24">
			<feColorMatrix  type="matrix" values="1 0 0 0 0  0 1 0 0 0  0 0 1 0 0  0 0 0 1 0"/>
		</filter>
	</defs>
	<mask maskUnits="userSpaceOnUse" x="73.9" y="124.2" width="24" height="24" id="mask-3_30_">
		<g class="st13">
			<polygon id="path-2_30_" class="st3" points="0,166.6 166,166.6 166,0.4 0,0.4 			"/>
		</g>
	</mask>
	<path id="Fill-21_4_" class="st14" d="M85.8,144.1c-4.4,0-7.9-3.5-7.9-7.9c0-4.4,3.5-7.9,7.9-7.9c4.4,0,7.9,3.5,7.9,7.9
		C93.8,140.6,90.2,144.1,85.8,144.1 M85.8,124.2c-6.6,0-12,5.4-12,12c0,6.6,5.4,12,12,12c6.6,0,12-5.4,12-12
		C97.8,129.6,92.5,124.2,85.8,124.2"/>
	<defs>
		<filter id="Adobe_OpacityMaskFilter_6_" filterUnits="userSpaceOnUse" x="17.7" y="124.2" width="24" height="24">
			<feColorMatrix  type="matrix" values="1 0 0 0 0  0 1 0 0 0  0 0 1 0 0  0 0 0 1 0"/>
		</filter>
	</defs>
	<mask maskUnits="userSpaceOnUse" x="17.7" y="124.2" width="24" height="24" id="mask-3_29_">
		<g class="st15">
			<polygon id="path-2_29_" class="st3" points="0,166.6 166,166.6 166,0.4 0,0.4 			"/>
		</g>
	</mask>
	<path id="Fill-22_4_" class="st16" d="M41.5,134.3h-4.2h-7.6v3.8h7.6c-0.9,3.4-4,6-7.7,6c-4.4,0-7.9-3.5-7.9-7.9
		c0-4.4,3.5-7.9,7.9-7.9c2.2,0,4.2,0.9,5.6,2.4l2.8-3c-2.2-2.2-5.2-3.5-8.5-3.5c-6.6,0-12,5.4-12,12c0,6.6,5.4,12,12,12
		c6,0,10.9-4.4,11.8-10.1c0.1-0.6,0.2-1.3,0.2-1.9C41.6,135.5,41.6,134.9,41.5,134.3"/>
</g>
</svg>
